<svg width="11" height="11" viewBox="0 0 11 11" fill="none" xmlns="http://www.w3.org/2000/svg">
<path d="M7.4636 5.43062L10.4976 8.49494C10.892 8.85901 10.892 9.46581 10.4976 9.82989L9.83011 10.4974C9.46603 10.8918 8.85923 10.8918 8.49515 10.4974L5.46117 7.46338L2.39685 10.4974C2.03278 10.8918 1.42598 10.8918 1.0619 10.4974L0.394427 9.82989C9.18657e-06 9.46581 9.18657e-06 8.85901 0.394427 8.49494L3.42841 5.43062L0.394427 2.39664C9.18657e-06 2.03256 9.18657e-06 1.42576 0.394427 1.06168L1.0619 0.394209C1.42598 -0.000208432 2.03278 -0.000208432 2.39685 0.394209L5.46117 3.42819L8.49515 0.394209C8.85923 -0.000208432 9.46603 -0.000208432 9.83011 0.394209L10.4976 1.06168C10.892 1.42576 10.892 2.03256 10.4976 2.39664L7.4636 5.43062Z" fill="#EF4444"/>
</svg>
