<svg width="36" height="36" viewBox="0 0 36 36" fill="none" xmlns="http://www.w3.org/2000/svg">
<rect width="35.8801" height="35.8801" rx="5.98001" fill="#F7EFEA"/>
<path d="M25.1857 15.469C25.4485 15.761 25.4485 16.199 25.1565 16.4618L16.5135 25.1048C16.2507 25.3968 15.8127 25.3968 15.5499 25.1048L10.6444 20.1993C10.3524 19.9365 10.3524 19.4985 10.6444 19.2065L11.7832 18.0678C12.0752 17.7758 12.5132 17.7758 12.776 18.0678L16.0463 21.3089L23.0249 14.3303C23.2877 14.0383 23.7549 14.0383 24.0177 14.3303L25.1857 15.469ZM15.6959 18.5642L12.4256 15.2938C12.2504 15.1186 12.2504 14.8266 12.4256 14.6223L13.7687 13.3083C13.9439 13.1331 14.2359 13.1331 14.4111 13.3083L16.0463 14.9434L20.4554 10.5052C20.6306 10.33 20.9226 10.33 21.127 10.5052L22.4409 11.8191C22.6161 12.0235 22.6161 12.3155 22.4409 12.4907L16.3675 18.5642C16.1923 18.7685 15.8711 18.7685 15.6959 18.5642Z" fill="#B05A2F"/>
</svg>
