<svg width="12" height="12" viewBox="0 0 12 12" fill="none" xmlns="http://www.w3.org/2000/svg">
<path d="M0 5.99215C0 4.40293 0.631314 2.87881 1.75506 1.75506C2.87881 0.631314 4.40293 0 5.99215 0C7.58137 0 9.10549 0.631314 10.2292 1.75506C11.353 2.87881 11.9843 4.40293 11.9843 5.99215C11.9843 7.58137 11.353 9.10549 10.2292 10.2292C9.10549 11.353 7.58137 11.9843 5.99215 11.9843C4.40293 11.9843 2.87881 11.353 1.75506 10.2292C0.631314 9.10549 0 7.58137 0 5.99215ZM7.92789 9.26676C8.08238 9.12866 8.09408 8.89225 7.95598 8.73777C7.57913 8.31879 6.9214 7.8647 5.99215 7.8647C5.0629 7.8647 4.40517 8.31879 4.02832 8.73777C3.89022 8.89225 3.90192 9.12866 4.0564 9.26676C4.21089 9.40486 4.4473 9.39316 4.5854 9.23868C4.85926 8.93439 5.32505 8.61371 5.99215 8.61371C6.65924 8.61371 7.12504 8.93439 7.3989 9.23868C7.537 9.39316 7.77341 9.40486 7.92789 9.26676ZM4.12896 6.36666C4.54327 6.36666 4.87798 6.03194 4.87798 5.61764C4.87798 5.58253 4.87564 5.54742 4.87096 5.51465L5.1261 5.59891C5.32271 5.66445 5.53337 5.55912 5.59891 5.36251C5.66445 5.16589 5.55912 4.95523 5.36251 4.88969L3.11545 4.14067C2.91883 4.07513 2.70817 4.18046 2.64263 4.37708C2.57709 4.57369 2.68242 4.78436 2.87904 4.8499L3.59763 5.08864C3.46187 5.2244 3.37995 5.41166 3.37995 5.61764C3.37995 6.03194 3.71466 6.36666 4.12896 6.36666ZM8.62308 5.61764C8.62308 5.40932 8.53881 5.21972 8.40071 5.08396L9.1076 4.84756C9.30422 4.78202 9.40955 4.56901 9.34401 4.37474C9.27847 4.18046 9.06547 4.07279 8.87119 4.13833L6.62413 4.88735C6.42752 4.95289 6.32219 5.16589 6.38772 5.36016C6.45326 5.55444 6.66627 5.66211 6.86054 5.59657L7.1344 5.50529C7.12972 5.5404 7.12738 5.57785 7.12738 5.6153C7.12738 6.0296 7.4621 6.36432 7.8764 6.36432C8.2907 6.36432 8.62542 6.0296 8.62542 5.6153L8.62308 5.61764Z" fill="#EF4444"/>
</svg>
