<svg width="36" height="36" viewBox="0 0 36 36" fill="none" xmlns="http://www.w3.org/2000/svg">
<rect width="35.8801" height="35.8801" rx="5.98001" fill="#F7EFEA"/>
<path d="M26.6604 23.4404C26.894 23.4404 27.1276 23.674 27.1276 23.9076V24.842C27.1276 25.1048 26.894 25.3092 26.6604 25.3092H22.4557V14.0967H19.6526V12.2279H22.9229C23.6821 12.2279 24.3244 12.8995 24.3244 13.6879V23.4404H26.6604ZM17.5502 10.4176C18.1342 10.2424 18.7182 10.7095 18.7182 11.3519V25.3092H8.90722C8.64443 25.3092 8.44003 25.1048 8.44003 24.842V23.9076C8.44003 23.674 8.64443 23.4404 8.90722 23.4404H11.2432V12.7827C11.2432 12.3447 11.506 11.9651 11.9439 11.8483L17.5502 10.4176ZM16.1486 18.7685C16.5282 18.7685 16.8494 18.3598 16.8494 17.8342C16.8494 17.3378 16.5282 16.8998 16.1486 16.8998C15.7398 16.8998 15.4479 17.3378 15.4479 17.8342C15.4479 18.3598 15.7398 18.7685 16.1486 18.7685Z" fill="#B05A2F"/>
</svg>
