<svg width="17" height="14" viewBox="0 0 17 14" fill="none" xmlns="http://www.w3.org/2000/svg">
<path d="M12.1523 4.66265C12.1523 7.2563 9.4129 9.3254 6.09069 9.3254C4.89586 9.3254 3.75931 9.06312 2.82676 8.59684C2.18564 8.97569 1.31137 9.3254 0.262251 9.3254C0.145683 9.3254 0.0873981 9.29626 0.0291138 9.20883C-2.84147e-05 9.1214 0.0291138 9.00483 0.0873981 8.94655C0.0873981 8.94655 0.728526 8.24714 1.13652 7.34373C0.437104 6.58603 0.0291138 5.68262 0.0291138 4.66265C0.0291138 2.09814 2.73934 -0.000101745 6.09069 -0.000101745C9.4129 -0.000101745 12.1523 2.09814 12.1523 4.66265ZM15.7076 11.0739C16.0865 11.9773 16.7276 12.6767 16.7276 12.6767C16.815 12.735 16.815 12.8516 16.7859 12.939C16.7567 13.0265 16.6693 13.0556 16.5819 13.0556C15.5036 13.0556 14.6293 12.7059 13.9882 12.327C13.0557 12.7933 11.9483 13.0556 10.7534 13.0556C8.21807 13.0556 6.06155 11.8899 5.15814 10.2288C5.44956 10.2579 5.77012 10.2579 6.09069 10.2579C9.93746 10.2579 13.0848 7.75172 13.0848 4.66265C13.0848 4.48779 13.0557 4.2838 13.0265 4.0798C15.2413 4.77922 16.815 6.46946 16.815 8.39285C16.815 9.41282 16.3779 10.3162 15.7076 11.0739Z" fill="#B05A2F"/>
</svg>
