<svg width="11" height="9" viewBox="0 0 11 9" fill="none" xmlns="http://www.w3.org/2000/svg">
<path d="M6.74249 6.17946C6.43176 6.17946 6.18072 6.4305 6.18072 6.74123C6.18072 7.05195 6.43176 7.30299 6.74249 7.30299H9.5513C9.86203 7.30299 10.1131 7.05195 10.1131 6.74123V3.93241C10.1131 3.62168 9.86203 3.37064 9.5513 3.37064C9.24058 3.37064 8.98954 3.62168 8.98954 3.93241V5.38422L6.0157 2.41213C5.79626 2.1927 5.43989 2.1927 5.22046 2.41213L3.3719 4.26069L0.959826 1.85037C0.740387 1.63093 0.384018 1.63093 0.164579 1.85037C-0.0548598 2.06981 -0.0548598 2.42618 0.164579 2.64562L2.9734 5.45444C3.19284 5.67388 3.54921 5.67388 3.76865 5.45444L5.61896 3.60413L8.19429 6.17946H6.74249Z" fill="#B05A2F"/>
</svg>
