<svg width="44" height="44" viewBox="0 0 44 44" fill="none" xmlns="http://www.w3.org/2000/svg">
<rect width="43.4951" height="43.4951" rx="10.8738" fill="#F7EFEA"/>
<path d="M21.7475 12.686C21.9103 12.686 22.0732 12.7214 22.2218 12.7887L28.887 15.6169C29.6657 15.946 30.2462 16.7141 30.2427 17.6415C30.225 21.1528 28.7808 27.5773 22.682 30.4975C22.0909 30.7807 21.4042 30.7807 20.8131 30.4975C14.7143 27.5773 13.2701 21.1528 13.2524 17.6415C13.2489 16.7141 13.8294 15.946 14.6081 15.6169L21.2768 12.7887C21.4219 12.7214 21.5847 12.686 21.7475 12.686ZM21.7475 15.0505V28.4303C26.6322 26.0659 27.9454 20.8307 27.9773 17.6911L21.7475 15.0505Z" fill="#B05A2F"/>
</svg>
