<svg width="44" height="44" viewBox="0 0 44 44" fill="none" xmlns="http://www.w3.org/2000/svg">
<rect width="43.4951" height="43.4951" rx="10.8738" fill="#F7EFEA"/>
<path d="M25.9456 15.7515C26.388 15.309 26.388 14.5905 25.9456 14.148C25.5031 13.7055 24.7846 13.7055 24.3421 14.148L19.4822 19.0115L17.4504 16.9797C17.008 16.5373 16.2894 16.5373 15.847 16.9797C15.4045 17.4222 15.4045 18.1407 15.847 18.5832L18.6787 21.4149C19.1211 21.8573 19.8397 21.8573 20.2821 21.4149L25.9456 15.7515ZM29.3436 20.2822C29.7861 19.8397 29.7861 19.1212 29.3436 18.6787C28.9011 18.2363 28.1826 18.2363 27.7401 18.6787L19.4822 26.9403L15.7514 23.213C15.3089 22.7706 14.5904 22.7706 14.1479 23.213C13.7055 23.6555 13.7055 24.374 14.1479 24.8165L18.6787 29.3472C19.1211 29.7897 19.8397 29.7897 20.2821 29.3472L29.3436 20.2857V20.2822Z" fill="#B05A2F"/>
</svg>
