<svg width="44" height="44" viewBox="0 0 44 44" fill="none" xmlns="http://www.w3.org/2000/svg">
<rect width="43.4951" height="43.4951" rx="10.8738" fill="#F7EFEA"/>
<path d="M13.8187 14.9514C12.5692 14.9514 11.5533 15.9673 11.5533 17.2168V26.2783C11.5533 27.5277 12.5692 28.5436 13.8187 28.5436H29.6763C30.9258 28.5436 31.9417 27.5277 31.9417 26.2783V17.2168C31.9417 15.9673 30.9258 14.9514 29.6763 14.9514H13.8187ZM14.3851 17.2168H15.5177C15.8292 17.2168 16.0841 17.4716 16.0841 17.7831V18.9158C16.0841 19.2273 15.8292 19.4822 15.5177 19.4822H14.3851C14.0736 19.4822 13.8187 19.2273 13.8187 18.9158V17.7831C13.8187 17.4716 14.0736 17.2168 14.3851 17.2168ZM13.8187 21.1812C13.8187 20.8697 14.0736 20.6148 14.3851 20.6148H15.5177C15.8292 20.6148 16.0841 20.8697 16.0841 21.1812V22.3139C16.0841 22.6253 15.8292 22.8802 15.5177 22.8802H14.3851C14.0736 22.8802 13.8187 22.6253 13.8187 22.3139V21.1812ZM14.3851 24.0129H15.5177C15.8292 24.0129 16.0841 24.2677 16.0841 24.5792V25.7119C16.0841 26.0234 15.8292 26.2783 15.5177 26.2783H14.3851C14.0736 26.2783 13.8187 26.0234 13.8187 25.7119V24.5792C13.8187 24.2677 14.0736 24.0129 14.3851 24.0129ZM17.2168 17.7831C17.2168 17.4716 17.4716 17.2168 17.7831 17.2168H18.9158C19.2273 17.2168 19.4821 17.4716 19.4821 17.7831V18.9158C19.4821 19.2273 19.2273 19.4822 18.9158 19.4822H17.7831C17.4716 19.4822 17.2168 19.2273 17.2168 18.9158V17.7831ZM17.7831 20.6148H18.9158C19.2273 20.6148 19.4821 20.8697 19.4821 21.1812V22.3139C19.4821 22.6253 19.2273 22.8802 18.9158 22.8802H17.7831C17.4716 22.8802 17.2168 22.6253 17.2168 22.3139V21.1812C17.2168 20.8697 17.4716 20.6148 17.7831 20.6148ZM17.2168 24.5792C17.2168 24.2677 17.4716 24.0129 17.7831 24.0129H25.7119C26.0234 24.0129 26.2782 24.2677 26.2782 24.5792V25.7119C26.2782 26.0234 26.0234 26.2783 25.7119 26.2783H17.7831C17.4716 26.2783 17.2168 26.0234 17.2168 25.7119V24.5792ZM21.1812 17.2168H22.3138C22.6253 17.2168 22.8802 17.4716 22.8802 17.7831V18.9158C22.8802 19.2273 22.6253 19.4822 22.3138 19.4822H21.1812C20.8697 19.4822 20.6148 19.2273 20.6148 18.9158V17.7831C20.6148 17.4716 20.8697 17.2168 21.1812 17.2168ZM20.6148 21.1812C20.6148 20.8697 20.8697 20.6148 21.1812 20.6148H22.3138C22.6253 20.6148 22.8802 20.8697 22.8802 21.1812V22.3139C22.8802 22.6253 22.6253 22.8802 22.3138 22.8802H21.1812C20.8697 22.8802 20.6148 22.6253 20.6148 22.3139V21.1812ZM24.5792 17.2168H25.7119C26.0234 17.2168 26.2782 17.4716 26.2782 17.7831V18.9158C26.2782 19.2273 26.0234 19.4822 25.7119 19.4822H24.5792C24.2677 19.4822 24.0129 19.2273 24.0129 18.9158V17.7831C24.0129 17.4716 24.2677 17.2168 24.5792 17.2168ZM24.0129 21.1812C24.0129 20.8697 24.2677 20.6148 24.5792 20.6148H25.7119C26.0234 20.6148 26.2782 20.8697 26.2782 21.1812V22.3139C26.2782 22.6253 26.0234 22.8802 25.7119 22.8802H24.5792C24.2677 22.8802 24.0129 22.6253 24.0129 22.3139V21.1812ZM27.9773 17.2168H29.1099C29.4214 17.2168 29.6763 17.4716 29.6763 17.7831V18.9158C29.6763 19.2273 29.4214 19.4822 29.1099 19.4822H27.9773C27.6658 19.4822 27.4109 19.2273 27.4109 18.9158V17.7831C27.4109 17.4716 27.6658 17.2168 27.9773 17.2168ZM27.4109 21.1812C27.4109 20.8697 27.6658 20.6148 27.9773 20.6148H29.1099C29.4214 20.6148 29.6763 20.8697 29.6763 21.1812V22.3139C29.6763 22.6253 29.4214 22.8802 29.1099 22.8802H27.9773C27.6658 22.8802 27.4109 22.6253 27.4109 22.3139V21.1812ZM27.9773 24.0129H29.1099C29.4214 24.0129 29.6763 24.2677 29.6763 24.5792V25.7119C29.6763 26.0234 29.4214 26.2783 29.1099 26.2783H27.9773C27.6658 26.2783 27.4109 26.0234 27.4109 25.7119V24.5792C27.4109 24.2677 27.6658 24.0129 27.9773 24.0129Z" fill="#B05A2F"/>
</svg>
