<svg width="17" height="12" viewBox="0 0 17 12" fill="none" xmlns="http://www.w3.org/2000/svg">
<path d="M16.6693 5.18714C16.7276 5.30371 16.7568 5.44942 16.7568 5.62427C16.7568 5.76998 16.7276 5.91569 16.6693 6.03226C15.0957 9.12133 11.9483 11.1904 8.39295 11.1904C4.80846 11.1904 1.6611 9.12133 0.0874266 6.03226C0.0291422 5.91569 0 5.76998 0 5.59513C0 5.44942 0.0291422 5.30371 0.0874266 5.18714C1.6611 2.09807 4.80846 -0.000169039 8.39295 -0.000169039C11.9483 -0.000169039 15.0957 2.09807 16.6693 5.18714ZM8.39295 9.7916V9.82075C10.6952 9.82075 12.5894 7.92651 12.5894 5.62427V5.59513C12.5894 3.2929 10.6952 1.39866 8.39295 1.39866C6.06157 1.39866 4.19647 3.2929 4.19647 5.59513C4.19647 7.92651 6.06157 9.7916 8.39295 9.7916ZM8.39295 2.79748V2.82662C9.93748 2.82662 11.1906 4.05059 11.1906 5.59513C11.1906 7.13967 9.93748 8.39278 8.39295 8.39278C6.84841 8.39278 5.5953 7.13967 5.5953 5.59513C5.5953 5.36199 5.62444 5.09971 5.68273 4.86658C5.91586 5.04143 6.20729 5.12886 6.52785 5.12886C7.28555 5.12886 7.89753 4.51687 7.89753 3.75917C7.89753 3.43861 7.81011 3.14719 7.63525 2.91405C7.86839 2.85577 8.13067 2.82662 8.39295 2.79748Z" fill="#B05A2F"/>
</svg>
