<svg width="11" height="15" viewBox="0 0 11 15" fill="none" xmlns="http://www.w3.org/2000/svg">
<path d="M2.79765 13.2597V12.1231H7.43126V13.2597C7.43126 13.4345 7.37297 13.6094 7.28555 13.7842L6.79013 14.5128C6.61528 14.7751 6.32385 14.9499 6.00329 14.9499H4.22562C3.90505 14.9499 3.61363 14.7751 3.43878 14.5128L2.94336 13.7842C2.82679 13.6094 2.79765 13.4345 2.79765 13.2597ZM0 5.12899C0 2.41877 2.12738 0.0291077 5.09988 -3.44515e-05C7.92667 -3.44515e-05 10.258 2.3022 10.258 5.12899C10.258 6.44039 9.76263 7.60608 8.97579 8.50948C8.48038 9.06318 7.75182 10.2289 7.4604 11.1906C7.4604 11.1906 7.4604 11.1906 7.4604 11.2197H2.76851C2.76851 11.1906 2.76851 11.1906 2.76851 11.1906C2.47709 10.2289 1.74853 9.06318 1.25311 8.50948C0.466275 7.60608 0 6.44039 0 5.12899ZM5.12902 2.79762C5.36216 2.79762 5.5953 2.59362 5.5953 2.33134C5.5953 2.0982 5.36216 1.86507 5.12902 1.86507C3.32221 1.86507 1.8651 3.35132 1.8651 5.12899C1.8651 5.39127 2.0691 5.59526 2.33137 5.59526C2.56451 5.59526 2.79765 5.39127 2.79765 5.12899C2.79765 3.84673 3.81763 2.79762 5.12902 2.79762Z" fill="#B05A2F"/>
</svg>
