<svg width="44" height="44" viewBox="0 0 44 44" fill="none" xmlns="http://www.w3.org/2000/svg">
<rect width="43.4951" height="43.4951" rx="10.8738" fill="#F7EFEA"/>
<path d="M20.0485 12.686C19.422 12.686 18.9158 13.1922 18.9158 13.8187C18.9158 14.4452 19.422 14.9514 20.0485 14.9514H20.6149V16.169C17.0858 16.7141 14.3851 19.7653 14.3851 23.4465C14.3851 27.5136 17.6805 30.809 21.7475 30.809C25.8146 30.809 29.11 27.5136 29.11 23.4465C29.11 21.967 28.6746 20.59 27.9242 19.4397L28.7773 18.5866C29.2197 18.1442 29.2197 17.4256 28.7773 16.9832C28.3348 16.5407 27.6163 16.5407 27.1738 16.9832L26.4092 17.7477C25.4146 16.9336 24.2076 16.3743 22.8802 16.169V14.9514H23.4466C24.0731 14.9514 24.5793 14.4452 24.5793 13.8187C24.5793 13.1922 24.0731 12.686 23.4466 12.686H21.7475H20.0485ZM22.5971 19.4821V24.0129C22.5971 24.4836 22.2183 24.8624 21.7475 24.8624C21.2768 24.8624 20.898 24.4836 20.898 24.0129V19.4821C20.898 19.0114 21.2768 18.6326 21.7475 18.6326C22.2183 18.6326 22.5971 19.0114 22.5971 19.4821Z" fill="#B05A2F"/>
</svg>
