<svg width="36" height="36" viewBox="0 0 36 36" fill="none" xmlns="http://www.w3.org/2000/svg">
<rect width="35.8801" height="35.8801" rx="5.98001" fill="#F7EFEA"/>
<path d="M18.4806 14.3303C18.4806 14.739 18.7726 15.031 19.1814 15.031H23.1525V24.6084C23.1525 25.0172 22.8313 25.3092 22.4517 25.3092H12.6408C12.232 25.3092 11.94 25.0172 11.94 24.6084V11.0599C11.94 10.6804 12.232 10.3592 12.6408 10.3592H18.4806V14.3303ZM20.3786 20.6665C20.7874 20.6665 20.9918 20.1409 20.6998 19.8489L17.8967 17.0458C17.6923 16.8706 17.3711 16.8706 17.1667 17.0458L14.3635 19.8489C14.0715 20.1409 14.2759 20.6665 14.6847 20.6665H16.6119V23.0024C16.6119 23.236 16.8163 23.4696 17.0791 23.4696H18.0134C18.247 23.4696 18.4806 23.236 18.4806 23.0024V20.6665H20.3786ZM22.9481 13.4251C23.0649 13.5711 23.1525 13.7463 23.1525 13.9215V14.0967H19.415V10.3592H19.5902C19.7654 10.3592 19.9406 10.4468 20.0866 10.5636L22.9481 13.4251Z" fill="#B05A2F"/>
</svg>
