<svg width="36" height="36" viewBox="0 0 36 36" fill="none" xmlns="http://www.w3.org/2000/svg">
<rect width="35.8801" height="35.8801" rx="5.98001" fill="#F7EFEA"/>
<path d="M25.1856 23.2944C25.4484 23.5864 25.4484 24.0244 25.1564 24.2872L24.3389 25.1048C24.0761 25.3968 23.6381 25.3968 23.3461 25.1048L20.4554 22.2141C20.3094 22.0681 20.251 21.8929 20.251 21.7177V21.2213C19.1998 22.0389 17.915 22.5061 16.5134 22.5061C13.1555 22.5061 10.44 19.7905 10.44 16.4326C10.44 13.1039 13.1555 10.3592 16.5134 10.3592C19.8422 10.3592 22.5869 13.1039 22.5869 16.4326C22.5869 17.8634 22.0905 19.1481 21.3021 20.1701H21.7693C21.9445 20.1701 22.1197 20.2577 22.2657 20.3745L25.1856 23.2944ZM16.5134 20.1701C18.5574 20.1701 20.251 18.5058 20.251 16.4326C20.251 14.3887 18.5574 12.6951 16.5134 12.6951C14.4403 12.6951 12.7759 14.3887 12.7759 16.4326C12.7759 18.5058 14.4403 20.1701 16.5134 20.1701Z" fill="#B05A2F"/>
</svg>
