<svg width="12" height="12" viewBox="0 0 12 12" fill="none" xmlns="http://www.w3.org/2000/svg">
<path d="M5.99215 11.9843C7.58137 11.9843 9.10549 11.353 10.2292 10.2292C11.353 9.10549 11.9843 7.58137 11.9843 5.99215C11.9843 4.40293 11.353 2.87881 10.2292 1.75506C9.10549 0.631314 7.58137 0 5.99215 0C4.40293 0 2.87881 0.631314 1.75506 1.75506C0.631314 2.87881 0 4.40293 0 5.99215C0 7.58137 0.631314 9.10549 1.75506 10.2292C2.87881 11.353 4.40293 11.9843 5.99215 11.9843ZM3.97448 3.86915C4.15939 3.34718 4.65562 2.99607 5.21036 2.99607H6.57498C7.39188 2.99607 8.05195 3.65849 8.05195 4.47305C8.05195 5.00204 7.76873 5.49124 7.30995 5.75574L6.55391 6.18877C6.54923 6.49305 6.29878 6.74117 5.99215 6.74117C5.68084 6.74117 5.43039 6.49071 5.43039 6.1794V5.86341C5.43039 5.66211 5.53806 5.4772 5.71361 5.37655L6.75053 4.78202C6.86054 4.71882 6.92842 4.60178 6.92842 4.47539C6.92842 4.27877 6.76926 4.12194 6.57498 4.12194H5.21036C5.13078 4.12194 5.06056 4.1711 5.03481 4.246L5.02545 4.27409C4.92246 4.56667 4.59944 4.71882 4.3092 4.61583C4.01895 4.51284 3.86447 4.18982 3.96746 3.89958L3.97682 3.87149L3.97448 3.86915ZM5.24313 8.2392C5.24313 8.04055 5.32204 7.85004 5.46251 7.70957C5.60298 7.5691 5.7935 7.49019 5.99215 7.49019C6.1908 7.49019 6.38132 7.5691 6.52178 7.70957C6.66225 7.85004 6.74117 8.04055 6.74117 8.2392C6.74117 8.43786 6.66225 8.62837 6.52178 8.76884C6.38132 8.90931 6.1908 8.98822 5.99215 8.98822C5.7935 8.98822 5.60298 8.90931 5.46251 8.76884C5.32204 8.62837 5.24313 8.43786 5.24313 8.2392Z" fill="#3B82F6"/>
</svg>
