<svg width="12" height="12" viewBox="0 0 12 12" fill="none" xmlns="http://www.w3.org/2000/svg">
<path d="M5.99215 0C7.58137 0 9.10549 0.631314 10.2292 1.75506C11.353 2.87881 11.9843 4.40293 11.9843 5.99215C11.9843 7.58137 11.353 9.10549 10.2292 10.2292C9.10549 11.353 7.58137 11.9843 5.99215 11.9843C4.40293 11.9843 2.87881 11.353 1.75506 10.2292C0.631314 9.10549 0 7.58137 0 5.99215C0 4.40293 0.631314 2.87881 1.75506 1.75506C2.87881 0.631314 4.40293 0 5.99215 0ZM5.43039 2.80882V5.99215C5.43039 6.1794 5.52401 6.35495 5.68084 6.46029L7.92789 7.95832C8.18537 8.13153 8.53413 8.06131 8.70734 7.8015C8.88055 7.54168 8.81033 7.19526 8.55052 7.02205L6.55391 5.69254V2.80882C6.55391 2.49751 6.30346 2.24706 5.99215 2.24706C5.68084 2.24706 5.43039 2.49751 5.43039 2.80882Z" fill="#F97316"/>
</svg>
